# Blender v2.79 (sub 0) OBJ File: ''
# www.blender.org
mtllib simpleArrow.mtl
o Cube
v 0.047447 -0.159107 0.435993
v 0.047447 -0.159107 -1.000000
v -0.047447 -0.159107 0.435993
v -0.047447 -0.159107 -1.000000
v 0.047447 0.159107 0.435993
v 0.047447 0.159107 -1.000000
v -0.047447 0.159107 0.435993
v -0.047447 0.159107 -1.000000
v 0.047447 -0.159107 0.293511
v -0.047447 -0.159107 0.293511
v 0.047447 0.159107 0.293511
v -0.047447 0.159107 0.293511
v 0.047447 0.499142 0.435993
v 0.047447 0.499142 0.293511
v -0.047447 0.499142 0.435993
v -0.047447 0.499142 0.293511
v 0.047447 0.000000 0.435993
v 0.047447 0.000000 -1.000000
v -0.047447 0.000000 0.435993
v -0.047447 0.000000 -1.000000
v -0.047447 0.000000 0.293511
v 0.047447 0.000000 0.293511
v 0.047447 -0.499142 0.435993
v 0.047447 -0.499142 0.293511
v -0.047447 -0.499142 0.435993
v -0.047447 -0.499142 0.293511
v -0.047448 0.022630 1.043329
v -0.047448 0.000000 1.043329
v -0.047448 -0.070995 1.043329
v 0.047448 0.022630 1.043329
v 0.047448 0.000000 1.043329
v 0.047448 -0.070995 1.043329
v 0.047448 -0.022630 1.043329
v -0.047448 -0.022630 1.043329
v 0.047448 0.070995 1.043329
v -0.047448 0.070995 1.043329
v 0.000000 -0.159107 -1.000000
v 0.000000 -0.499142 0.435993
v 0.000000 0.159107 -1.000000
v -0.000000 -0.159107 0.293511
v -0.000000 0.159107 0.293511
v 0.000000 0.499142 0.435993
v -0.000000 0.499142 0.293511
v 0.000000 0.000000 1.043330
v 0.000000 0.000000 -1.000000
v -0.000000 -0.499142 0.293511
v 0.000000 0.070995 1.043330
v 0.000000 -0.022630 1.043330
v 0.000000 0.022630 1.043330
v 0.000000 -0.070995 1.043330
vt 0.270402 0.223307
vt 0.332422 0.223307
vt 0.332422 0.292564
vt 0.270402 0.292564
vt 0.154051 0.973307
vt 0.154051 0.993960
vt 0.006040 0.993960
vt 0.006040 0.973307
vt 0.332422 0.739178
vt 0.332422 0.887189
vt 0.270403 0.887189
vt 0.270403 0.739178
vt 0.270402 0.006040
vt 0.270402 0.154051
vt 0.006040 0.213457
vt 0.006040 0.192405
vt 0.332422 0.154051
vt 0.895465 0.154050
vt 0.895465 0.223307
vt 0.006040 0.679772
vt 0.006040 0.669922
vt 0.270403 0.669922
vt 0.717087 0.919922
vt 0.717087 0.940575
vt 0.154051 0.940575
vt 0.154051 0.919922
vt 0.717088 0.973307
vt 0.717089 0.993960
vt 0.928197 0.006040
vt 0.928197 0.068060
vt 0.907544 0.068060
vt 0.907544 0.006040
vt 0.928197 0.838782
vt 0.907544 0.838782
vt 0.907544 0.776762
vt 0.928197 0.776762
vt 0.006040 0.223307
vt 0.332422 0.669922
vt 0.332422 0.006040
vt 0.154051 0.899269
vt 0.717087 0.899268
vt 0.948850 0.776762
vt 0.948850 0.838782
vt 0.895465 0.292564
vt 0.006040 0.919922
vt 0.006040 0.899269
vt 0.855602 0.919922
vt 0.786344 0.919922
vt 0.786345 0.899269
vt 0.855602 0.899269
vt 0.006040 0.233158
vt 0.948850 0.432262
vt 0.948850 0.453314
vt 0.928197 0.453314
vt 0.928197 0.432262
vt 0.855602 0.940575
vt 0.786345 0.940575
vt 0.332422 0.440575
vt 0.270402 0.440575
vt 0.928197 0.422411
vt 0.907544 0.432262
vt 0.907544 0.422411
vt 0.948850 0.412560
vt 0.928197 0.412560
vt 0.928197 0.391508
vt 0.948850 0.391508
vt 0.907544 0.412560
vt 0.948850 0.422411
vt 0.907544 0.453314
vt 0.006040 0.254210
vt 0.270403 0.600665
vt 0.006040 0.660071
vt 0.006040 0.639019
vt 0.270402 0.452654
vt 0.907544 0.391508
vt 0.332422 0.600665
vt 0.332422 0.452654
vt 0.895464 0.669922
vt 0.895464 0.739178
vt 0.948850 0.068060
vt 0.006040 0.700824
vt 0.895464 0.600665
vt 0.006040 0.952654
vt 0.154051 0.952654
vt 0.948850 0.006040
vt 0.006040 0.940575
vt 0.717089 0.952654
vn -1.0000 0.0000 0.0000
vn 0.0000 0.0000 -1.0000
vn 1.0000 0.0000 0.0000
vn 0.0000 -1.0000 0.0000
vn 0.0000 1.0000 0.0000
vn 0.0000 0.0000 1.0000
vn -0.0000 0.8173 0.5762
vn 0.0000 -0.8173 0.5762
usemtl Material
s off
f 19/1/1 21/2/1 10/3/1 3/4/1
f 41/5/2 12/6/2 16/7/2 43/8/2
f 11/9/3 14/10/3 13/11/3 5/12/3
f 15/13/1 7/14/1 27/15/1 36/16/1
f 21/2/1 12/17/1 8/18/1 20/19/1
f 5/12/3 30/20/3 31/21/3 17/22/3
f 19/1/1 7/14/1 12/17/1 21/2/1
f 37/23/4 2/24/4 9/25/4 40/26/4
f 39/27/5 8/28/5 12/6/5 41/5/5
f 46/29/4 38/30/4 25/31/4 26/32/4
f 43/33/5 16/34/5 15/35/5 42/36/5
f 7/14/1 19/1/1 28/37/1 27/15/1
f 17/22/3 22/38/3 11/9/3 5/12/3
f 12/17/1 7/14/1 15/13/1 16/39/1
f 37/23/4 40/26/4 10/40/4 4/41/4
f 43/33/5 42/36/5 13/42/5 14/43/5
f 21/2/1 20/19/1 4/44/1 10/3/1
f 40/26/2 46/45/2 26/46/2 10/40/2
f 39/47/2 45/48/2 20/49/2 8/50/2
f 19/1/1 3/4/1 34/51/1 28/37/1
f 30/52/6 35/53/6 47/54/6 49/55/6
f 39/47/2 6/56/2 18/57/2 45/48/2
f 10/3/1 26/58/1 25/59/1 3/4/1
f 37/23/2 4/41/2 20/49/2 45/48/2
f 44/60/6 49/55/6 27/61/6 28/62/6
f 33/63/6 48/64/6 50/65/6 32/66/6
f 44/60/6 28/62/6 34/67/6 48/64/6
f 44/60/6 31/68/6 30/52/6 49/55/6
f 44/60/6 48/64/6 33/63/6 31/68/6
f 42/36/7 15/35/7 36/69/7 47/54/7
f 37/23/2 45/48/2 18/57/2 2/24/2
f 3/4/1 25/59/1 29/70/1 34/51/1
f 1/71/3 33/72/3 32/73/3 23/74/3
f 17/22/3 31/21/3 33/72/3 1/71/3
f 34/67/6 29/75/6 50/65/6 48/64/6
f 27/61/6 49/55/6 47/54/6 36/69/6
f 9/76/3 1/71/3 23/74/3 24/77/3
f 42/36/7 47/54/7 35/53/7 13/42/7
f 22/38/3 18/78/3 6/79/3 11/9/3
f 23/80/8 32/66/8 50/65/8 38/30/8
f 13/11/3 35/81/3 30/20/3 5/12/3
f 22/38/3 9/76/3 2/82/3 18/78/3
f 41/5/2 43/8/2 14/83/2 11/84/2
f 46/29/4 24/85/4 23/80/4 38/30/4
f 40/26/2 9/25/2 24/86/2 46/45/2
f 25/31/8 38/30/8 50/65/8 29/75/8
f 17/22/3 1/71/3 9/76/3 22/38/3
f 39/27/5 41/5/5 11/84/5 6/87/5
